
<svg width="328px" height="316px" viewBox="0 0 328 316" version="1.1" xmlns="http://www.w3.org/2000/svg" xmlns:xlink="http://www.w3.org/1999/xlink">
    <defs>
        <polygon id="path-1" points="0 0 58.2015826 0 58.2015826 55.214997 0 55.214997"></polygon>
        <polygon id="path-3" points="0.12882304 0.127204681 68.7654961 0.127204681 68.7654961 73.214211 0.12882304 73.214211"></polygon>
    </defs>
    <g id="Page-1" stroke="none" stroke-width="1" fill="none" fill-rule="evenodd">
        <g id="Start-3" transform="translate(-20.000000, -91.000000)">
            <g id="Illustration-3" transform="translate(6.641666, 84.177004)">
                <g id="Group-6" transform="translate(0.363519, 0.406726)" fill="#F7F9FD">
                    <ellipse id="Oval-2" transform="translate(105.728093, 69.747836) rotate(-29.000000) translate(-105.728093, -69.747836) " cx="105.728093" cy="69.7478357" rx="65.5808598" ry="27.3022315"></ellipse>
                    <ellipse id="Oval-2" transform="translate(264.683267, 298.887337) rotate(-29.000000) translate(-264.683267, -298.887337) " cx="264.683267" cy="298.887337" rx="30.2282252" ry="12.9549537"></ellipse>
                    <ellipse id="Oval-2" transform="translate(311.404103, 298.439827) rotate(-29.000000) translate(-311.404103, -298.439827) " cx="311.404103" cy="298.439827" rx="17.5903807" ry="6.79934972"></ellipse>
                    <ellipse id="Oval-2" transform="translate(96.436761, 23.848337) rotate(-29.000000) translate(-96.436761, -23.848337) " cx="96.4367608" cy="23.8483367" rx="29.6908346" ry="10.3486116"></ellipse>
                    <ellipse id="Oval-2" transform="translate(91.310573, 163.854136) rotate(-29.000000) translate(-91.310573, -163.854136) " cx="91.3105729" cy="163.854136" rx="77.1763285" ry="29.9545621"></ellipse>
                    <ellipse id="Oval-2" transform="translate(82.042288, 220.350319) rotate(-29.000000) translate(-82.042288, -220.350319) " cx="82.0422876" cy="220.350319" rx="77.1763285" ry="29.9545621"></ellipse>
                    <ellipse id="Oval-2" transform="translate(98.483625, 114.205839) rotate(-29.000000) translate(-98.483625, -114.205839) " cx="98.4836255" cy="114.205839" rx="61.7063444" ry="23.9501744"></ellipse>
                    <ellipse id="Oval-2" transform="translate(250.332870, 89.118696) rotate(-29.000000) translate(-250.332870, -89.118696) " cx="250.33287" cy="89.1186958" rx="77.1763285" ry="38.7130257"></ellipse>
                    <ellipse id="Oval-2" transform="translate(130.568004, 248.355089) rotate(-29.000000) translate(-130.568004, -248.355089) " cx="130.568004" cy="248.355089" rx="90.7519471" ry="28.3145406"></ellipse>
                    <ellipse id="Oval-2" transform="translate(133.730573, 111.138141) rotate(-29.000000) translate(-133.730573, -111.138141) " cx="133.730573" cy="111.138141" rx="120.036311" ry="40.1313716"></ellipse>
                    <ellipse id="Oval-2" transform="translate(233.722748, 200.734358) rotate(-29.000000) translate(-233.722748, -200.734358) " cx="233.722748" cy="200.734358" rx="120.036311" ry="45.1747328"></ellipse>
                    <ellipse id="Oval-2" transform="translate(240.773518, 143.302089) rotate(-29.000000) translate(-240.773518, -143.302089) " cx="240.773518" cy="143.302089" rx="107.231336" ry="40.35568"></ellipse>
                    <ellipse id="Oval-2" transform="translate(210.818956, 254.193141) rotate(-29.000000) translate(-210.818956, -254.193141) " cx="210.818956" cy="254.193141" rx="120.036311" ry="29.9545621"></ellipse>
                    <ellipse id="Oval-2" transform="translate(240.773518, 274.162849) rotate(-29.000000) translate(-240.773518, -274.162849) " cx="240.773518" cy="274.162849" rx="90.5224778" ry="22.5895079"></ellipse>
                </g>
                <g id="Group" transform="translate(90.765145, 102.087509)">
                    <path d="M66.3987045,38.1204297 C66.1654731,37.7707575 65.7948205,21.841438 57.0739945,13.9930443 C50.0805495,7.69894378 40.7561892,11.1082482 21.4074248,5.36767887 C5.74280727,0.72018497 -2.54372577,8.08603096 2.99158599,14.7798069 C6.7505627,19.3255462 9.19826846,20.6396145 11.1214658,21.3361616 C4.73994725,26.2315731 -0.854808788,31.651493 3.51609436,35.6727239 C7.88699752,39.6939548 14.7056064,40.9859938 14.7056064,40.9859938 C14.7056064,40.9859938 3.34125824,56.1285507 19.2513457,52.2821559 C17.3281483,60.4994538 17.8526567,65.9193738 30.2660217,60.4994538 C29.5666771,67.1432266 33.2382358,77.6333942 46.7006175,57.3524036 C48.4489788,61.5547647 50.5470123,59.275601 54.7430793,54.3801894 C58.9391463,49.4847779 66.3987045,38.1204297 66.3987045,38.1204297" id="Fill-1" fill="#FFB6F5"></path>
                    <path d="M57.0060532,37.6481624 C59.8649735,32.4667189 62.3451988,28.1304333 63.025661,22.8965391 C61.6829196,19.6201101 59.7841993,16.4164129 57.0847295,13.9868901 C51.8417437,9.26841271 45.2881864,10.0030741 34.1829453,8.24806908 C30.0274403,10.0604204 25.2921786,13.8582107 36.2239823,19.9183805 C31.4799788,23.2532048 32.5524236,28.1356784 39.3710325,28.3105145 C36.3988184,31.8072371 40.2452132,32.3317454 44.2664441,31.4575648 C41.8187383,36.5491425 44.6161163,38.9755182 49.686364,34.9542873 C47.5883304,42.4722408 52.4603139,45.8867903 57.0060532,37.6481624" id="Fill-3" fill="#FFD6FC"></path>
                    <path d="M11.1214658,21.3361616 C9.08077858,22.9016443 7.1222643,24.5202771 5.54279474,26.1305179 C10.3829581,25.3367618 18.7750921,25.3367618 25.3608193,20.2808508 C17.7379642,22.6956873 11.1214658,21.3361616 11.1214658,21.3361616" id="Fill-5" fill="#E899E0"></path>
                    <path d="M11.4043857,46.8533543 C16.8743087,44.1563323 25.5685596,39.3119729 30.7807742,33.5686061 C24.719905,37.9979046 14.7056414,40.9862036 14.7056414,40.9862036 C14.7056414,40.9862036 12.5156441,43.9042186 11.4043857,46.8533543" id="Fill-7" fill="#E899E0"></path>
                    <path d="M19.2511709,52.2821559 C18.7854074,54.271791 18.465807,56.0949822 18.4213986,57.6429812 C24.6483621,52.6237857 31.5194218,46.1642902 34.3940774,40.2111201 C28.6825309,47.319957 19.2511709,52.2821559 19.2511709,52.2821559" id="Fill-9" fill="#E899E0"></path>
                    <path d="M30.2660217,60.4994538 C30.0827934,62.2401223 30.2002833,64.2437443 30.7143015,65.8900013 C34.5596472,60.8075151 39.429183,53.1899051 40.7463984,45.8943432 C37.8616023,53.0626244 30.2660217,60.4994538 30.2660217,60.4994538" id="Fill-11" fill="#E899E0"></path>
                    <path d="M54.7726266,54.3931623 C58.9686936,49.4977507 66.4282518,38.1334026 66.4282518,38.1334026 C66.2674025,37.8924784 66.0404653,30.232558 63.0500682,22.9289537 C55.9569665,45.8943782 46.7301648,57.3653764 46.7301648,57.3653764 C48.4785261,61.5677375 50.5765596,59.2885738 54.7726266,54.3931623" id="Fill-13" fill="#E999E2"></path>
                    <g id="Group-17" transform="translate(0.000000, 103.852659)">
                        <mask id="mask-2" fill="white">
                            <use xlink:href="#path-1"></use>
                        </mask>
                        <g id="Clip-16"></g>
                        <path d="M9.10095467,16.7842681 C9.10095467,16.7842681 -0.340196134,8.0424618 0.00947611803,0 C11.5486604,0 52.0501484,8.7418063 53.1295866,9.79082306 C54.2086752,10.8398398 58.2015826,55.214997 58.2015826,55.214997 C58.2015826,55.214997 46.6033037,39.8626367 32.1793233,29.7221414 C18.9270946,20.4051243 9.10095467,16.7842681 9.10095467,16.7842681" id="Fill-15" fill="#2DC1C8" mask="url(#mask-2)"></path>
                    </g>
                    <path d="M172.048224,34.617553 C172.048224,34.617553 171.698552,50.7024766 169.950191,55.9475603 C159.460023,55.9475603 134.982965,57.6707452 118.898042,98.769823 C102.813118,139.868901 61.9014647,162.247925 61.9014647,162.247925 C61.9014647,162.247925 52.5312974,157.002841 53.1596584,143.715296 C53.8726402,128.63533 112.588905,65.3887111 112.588905,65.3887111 L156.662645,30.5963221 L172.048224,34.617553 Z" id="Fill-18" fill="#37D3DA"></path>
                    <path d="M116.450336,0 C94.9867539,4.06773731 64.2341283,15.5502747 51.7609694,58.7449384 C42.3198186,91.4392939 0.00947611803,103.852659 0.00947611803,103.852659 C0.00947611803,103.852659 17.2682495,109.71946 31.9464416,122.268847 C47.2152302,135.323162 53.1596584,143.715296 53.1596584,143.715296 C53.1596584,143.715296 96.4025768,130.893863 112.720382,86.6022777 C127.944063,45.2808083 172.048224,34.617553 172.048224,34.617553 C172.048224,34.617553 151.067889,4.0212309 116.450336,0" id="Fill-20" fill="#68EBEB"></path>
                    <path d="M107.591914,7.34311729 C107.591914,7.34311729 114.865097,10.2366552 121.345573,6.29410054 C129.388035,8.36695765 139.178858,13.9868901 144.423941,20.1061545 C141.626563,23.2532048 141.451727,27.9737802 147.920664,32.5195194 C129.213198,43.7090315 112.825459,57.1532303 100.496365,84.4458489 C88.3599402,111.312217 75.7136935,119.762746 63.824837,126.581355 C61.2022951,121.86078 51.7611443,119.58791 46.8657327,122.73496 C46.8657327,122.73496 34.4523678,109.971923 26.2067464,107.524218 C33.5781872,103.852659 29.207284,96.6843777 25.3608892,96.4221235 C38.4735987,89.8720629 53.4532083,76.7946703 59.4539338,53.4998546 C65.4543097,30.2050388 89.0012391,14.3365623 107.591914,7.34311729" id="Fill-22" fill="#37D4DA"></path>
                    <path d="M126.751331,63.0642648 L124.026685,62.3579269 L97.2183622,98.7696482 L98.1754152,112.38169 L109.316672,117.3855 C112.980888,111.688989 116.271654,105.480908 118.898042,98.7696482 C124.30922,84.943957 130.669758,75.5793844 137.128205,69.2321337 L126.751331,63.0642648 Z" id="Fill-24" fill="#9B3FDC"></path>
                    <path d="M126.751156,63.0642648 L68.5800299,26.2252441 L68.4873668,26.17629 C61.6379867,34.3068692 55.7606955,44.894945 51.7611443,58.7447635 C50.056492,64.6482802 46.7783147,70.6336201 43.8109959,74.6037988 L98.007048,112.290775 L98.1752403,112.38134 C103.90532,105.308519 108.96228,96.7695229 112.810073,86.6482596 C116.21728,77.6854604 121.18892,69.5097735 126.751156,63.0642648" id="Fill-26" fill="#B650F0"></path>
                    <path d="M92.7818955,59.3189603 C96.8153649,62.0264726 97.485337,67.7617969 95.1079153,73.9569401 L100.267679,77.3281303 L98.2581126,81.3392207 L93.1193292,78.0208311 C90.6163752,82.2396268 87.0168491,85.3485628 83.3561303,86.9301304 L80.7657582,82.2102543 C84.8747569,80.4129389 88.2847607,77.101193 90.0208834,73.6387384 C91.9196037,69.8524872 91.9224011,66.8432078 89.9516483,65.5427767 C84.2561867,61.7883458 78.6100288,81.4692988 69.399312,75.7028537 C65.4403228,73.2271742 64.7703507,67.688016 67.2638636,61.36769 L62.449576,58.274839 L64.5308252,54.0361119 L69.3304266,57.1562374 C71.402934,53.7070703 74.0954104,50.8617872 76.7543182,49.1473442 L79.3761607,53.9903049 C75.8951734,56.4712295 73.3946672,59.6123353 72.1351477,62.1208841 C70.4958842,65.3861236 70.3843387,68.1247566 72.1152164,69.2272733 C77.7501847,72.8173583 83.6460086,53.1297615 92.7818955,59.3189603" id="Fill-28" fill="#FFB6F6"></path>
                    <g id="Group-3" transform="translate(110.253701, 81.096778)">
                        <g id="Group-32" transform="translate(0.812649, 0.025281)">
                            <mask id="mask-4" fill="white">
                                <use xlink:href="#path-3"></use>
                            </mask>
                            <g id="Clip-31"></g>
                            <path d="M16.2789567,0.53066261 C16.2789567,0.53066261 17.8524819,3.67771288 40.231506,0.53066261 C62.6105301,-2.61638766 62.9602024,13.4685359 63.1350385,20.2871449 C63.3098746,27.1057538 73.1006977,55.2543701 66.4569249,65.7445376 C59.8131521,76.2347052 53.8687238,76.0598691 48.0991317,62.7723235 C37.6089641,73.2138866 33.0632248,73.262491 30.7903552,61.7233067 C20.4750238,68.5419156 19.6008431,63.1219957 18.9014986,56.6530591 C8.06165881,59.9749455 8.76100331,53.6808449 9.28551169,46.6873999 C-0.680147498,49.8344502 -3.4474537,42.666169 9.03829341,26.9309176 C0.704904293,27.455426 -3.65236164,25.7070648 4.39010016,15.7414056 C1.59272214,11.3705024 3.86559178,2.80353225 16.2789567,0.53066261" id="Fill-30" fill="#FFB6F6" mask="url(#mask-4)"></path>
                        </g>
                        <path d="M17.0948578,0.555943951 C4.86716879,2.79454571 2.48240403,11.1380753 5.08781198,15.564926 C9.89860282,11.599293 17.7812644,4.48346269 30.5215729,1.7234996 C18.5243179,2.60397433 17.0948578,0.555943951 17.0948578,0.555943951" id="Fill-33" fill="#E999E2"></path>
                        <path d="M64.7684383,25.5151647 C63.8103363,30.9875354 61.3381535,34.8828843 58.4393705,34.8828843 C55.7224171,34.8828843 53.3796131,31.4560962 52.3061192,26.518724 C50.4178891,29.0713315 48.2359342,30.4420467 46.3057434,29.959499 C44.2881345,29.4559709 42.983857,27.0432324 42.5747405,23.6793853 C40.8823268,25.4592171 39.2213836,26.305424 38.0150143,25.7844123 C36.5848548,25.1654924 36.116294,22.7807277 36.556881,19.6231872 C34.6966246,21.8799719 32.3258468,22.5919046 31.0355561,21.8471027 C29.5039917,20.9659287 29.462031,17.9552506 30.6823872,14.2627116 C27.5038664,16.5670517 24.4250022,17.2758374 22.385364,15.9355436 C20.23453,14.5221684 19.587986,8.06022519 30.5215379,1.72346463 C33.255975,1.52415145 41.1935351,0.573042924 41.5362139,0.492618306 C41.7949713,0.457651081 42.0502321,0.426180578 42.3019961,0.398206798 C53.1453327,-0.825646084 58.5197952,2.68506333 61.2017813,7.29724033 C63.7543888,11.6751369 63.8767741,17.0530962 63.9606954,20.3120416 C63.9921659,21.4834436 64.3033742,23.2842557 64.7684383,25.5151647" id="Fill-35" fill="#FFD6FC"></path>
                        <path d="M46.7458059,36.6957951 C42.8605975,44.8291716 43.6655431,59.210492 44.4620964,66.8875463 C45.8128804,65.7748892 47.290945,64.4111674 48.9116759,62.79743 C48.9116759,62.79743 44.9974447,48.8895658 46.7458059,36.6957951" id="Fill-37" fill="#E899E0"></path>
                        <path d="M27.0460056,64.2311212 C28.3093714,63.7254951 29.7993249,62.9219483 31.5746109,61.7484482 C31.2347295,47.41818 38.2369163,36.69583 38.2369163,36.69583 C29.6206423,45.520159 27.4026713,57.2159965 27.0460056,64.2311212" id="Fill-39" fill="#E899E0"></path>
                        <path d="M15.6048344,57.551472 C16.6741321,57.4588089 17.7595148,57.2913159 19.7141827,56.6783404 C19.7141827,56.6783404 21.1090253,42.5687154 30.521503,33.9433499 C19.5295557,40.936795 17.3311663,50.7325134 15.6048344,57.551472" id="Fill-41" fill="#E899E0"></path>
                        <path d="M24.7746745,28.8732421 C14.3677289,32.4161214 7.58583558,41.1803067 4.00938778,47.1338265 C5.48150796,47.6457467 7.55436508,47.5156686 10.0982307,46.7128211 C10.0982307,46.7128211 12.8581938,34.8830591 24.7746745,28.8732421" id="Fill-43" fill="#E899E0"></path>
                        <path d="M3.36270392,26.5679229 C4.93832709,27.0571144 7.19056606,27.1235521 9.85122223,26.9560591 C9.85122223,26.9560591 15.0711296,23.0163019 23.0632386,21.7420962 C13.2689188,20.8934416 6.27582345,24.6244445 3.36270392,26.5679229" id="Fill-45" fill="#E899E0"></path>
                    </g>
                </g>
                <g id="Group-4" opacity="0.600000024" transform="translate(45.697056, 36.923254)" stroke-width="2">
                    <circle id="Oval-5" stroke="#44D1D7" cx="21.1273233" cy="50.9914248" r="4.29058369"></circle>
                    <circle id="Oval-5" stroke="#44D1D7" cx="269.816296" cy="147.643471" r="4.29058369"></circle>
                    <circle id="Oval-5" stroke="#9E4FF2" cx="224.080945" cy="55.7632099" r="3.78236982"></circle>
                    <circle id="Oval-5" stroke="#9E4FF2" cx="28.6048967" cy="120.921893" r="3.78236982"></circle>
                    <circle id="Oval-5" stroke="#FBAFF7" cx="144.293354" cy="5.97452124" r="5.61685351"></circle>
                    <circle id="Oval-5" stroke="#FBAFF7" cx="13.9759889" cy="232.943933" r="5.61685351"></circle>
                    <circle id="Oval-5" stroke="#44D1D7" cx="136.691508" cy="244.889691" r="5.61685351"></circle>
                    <path d="M99.3817803,37.8897615 L92.5044473,33.9191314" id="Line-2" stroke="#44D1D7" stroke-linecap="round"></path>
                    <path d="M202.812034,255.278225 L210.921033,247.169225" id="Line-2" stroke="#9E4FF2" stroke-linecap="round"></path>
                    <path d="M1.3243132,167.634491 L9.43331315,159.525491" id="Line-2" stroke="#FBAFF7" stroke-linecap="round"></path>
                    <path d="M245.669373,80.756247 L253.778373,72.647247" id="Line-2" stroke="#FBAFF7" stroke-linecap="round"></path>
                    <path d="M99.9099802,27.1494511 L87.8424768,19.5002424" id="Line-2" stroke="#FBAFF7" stroke-linecap="round"></path>
                    <path d="M261.923406,213.273245 L270.032406,221.382245" id="Line-2" stroke="#FBAFF7" stroke-linecap="round"></path>
                    <path d="M99.0266994,267.572147 L105.23141,273.776858" id="Line-2" stroke="#9E4FF2" stroke-linecap="round"></path>
                    <path d="M23.0082363,191.553684 L29.2129469,197.758395" id="Line-2" stroke="#44D1D7" stroke-linecap="round"></path>
                </g>
            </g>
        </g>
    </g>
</svg>