
<svg width="299px" height="366px" viewBox="0 0 299 366" version="1.1" xmlns="http://www.w3.org/2000/svg" xmlns:xlink="http://www.w3.org/1999/xlink">
    <g id="Page-1" stroke="none" stroke-width="1" fill="none" fill-rule="evenodd">
        <g id="Start-1" transform="translate(-36.000000, -76.000000)">
            <g id="Illustration-1" transform="translate(37.000000, 77.000000)">
                <g id="Group" transform="translate(30.944379, 24.988807)">
                    <path d="M167.201361,256.785554 C167.187157,256.731983 167.17417,256.676789 167.15956,256.624031 C167.158748,256.623219 167.157937,256.622813 167.156719,256.622001 C162.104054,238.210416 144.687986,224.224883 123.423775,223.346653 C98.2493297,222.307712 76.9319545,240.021258 74.7505832,263.298012 L74.7493657,263.298012 C74.7489599,263.3041 74.7489599,263.310187 74.7489599,263.316275 C74.681591,264.035011 74.6316731,264.759024 74.602047,265.488312 C74.4794844,268.445643 74.6734743,271.346968 75.1503322,274.165097 C76.2326982,284.549236 79.1713605,296.258026 83.0657678,308.513071 C95.2144842,313.374181 108.218704,316.009278 121.739554,316.009278 C139.724605,316.009278 156.796524,311.347028 172.154596,302.98436 C172.258896,286.62996 170.794638,270.859964 167.444863,257.731153 C167.367348,257.4146 167.286181,257.099265 167.201361,256.785554" id="Fill-1" fill="#06A5A5"></path>
                    <path d="M106.570805,280.412057 C87.0727947,267.012553 90.7310052,238.621041 92.6335668,232.542016 C82.6857019,239.78985 75.9139136,250.743784 74.7345527,263.325122 L74.733741,263.325122 C74.7333352,263.33121 74.7333352,263.337703 74.7333352,263.343385 C74.6659663,264.062527 74.6160484,264.786539 74.5860165,265.515828 C74.4638597,268.472753 74.6574437,271.374078 75.1343017,274.192613 C76.2154502,284.562142 79.1459957,296.251451 83.0326921,308.48864 C93.1315282,312.54457 103.824103,315.059133 114.913586,315.80222 C109.132039,303.091826 104.764832,290.636703 106.570805,280.412057" id="Fill-3" fill="#079795"></path>
                    <path d="M174.667292,193.148114 C176.512631,199.286391 166.547315,207.707499 152.409594,211.957825 C138.271873,216.207745 125.315136,214.677741 123.469797,208.539464 C121.624458,202.401592 131.589368,193.980079 145.72709,189.729753 C159.865217,185.479427 172.821954,187.010242 174.667292,193.148114" id="Fill-5" fill="#7F41B8"></path>
                    <path d="M104.447468,158.84263 C99.2811691,169.453632 83.3102843,172.318026 68.775655,165.241049 C54.2406198,158.164072 46.6457951,143.825867 51.812094,133.215271 C56.9779872,122.604675 72.948872,119.739875 87.4839071,126.816853 C102.018536,133.893424 109.613361,148.232034 104.447468,158.84263" id="Fill-7" fill="#775299"></path>
                    <g id="Group-6" transform="translate(52.667026, 140.743661) rotate(-3.000000) translate(-52.667026, -140.743661) translate(21.667026, 100.743661)">
                        <path d="M24.281236,71.965036 C20.5730547,79.0361951 11.5757003,81.3680557 4.89958491,76.9886678 C0.313891908,73.9802898 -0.804240987,67.8422018 2.43005135,63.4289064 L48.8507459,0.0854726662 L61.4369923,1.11536416 L24.281236,71.965036 Z" id="Fill-9" fill="#FFD6FD"></path>
                        <path d="M55.2148299,0.606015208 L15.6165027,70.3702362 C13.2409299,75.7509188 13.1208235,77.641981 7.65475915,77.2849301 C13.9766834,79.9158311 21.4890494,77.3833847 24.7960592,71.0778014 L61.9518155,0.228129592 L55.2148299,0.606015208 Z" id="Fill-11" fill="#E1B9E4"></path>
                    </g>
                    <path d="M95.0300315,201.578718 L92.7187925,230.538401 C91.7857743,242.22771 100.371652,252.464125 111.895786,253.402419 C123.420326,254.340713 133.518756,245.625374 134.451774,233.936064 L136.763013,204.976382 L95.0300315,201.578718 Z" id="Fill-13" fill="#FFD6FD"></path>
                    <path d="M92.6552385,231.756154 C92.388198,242.930051 100.771157,252.496835 111.893107,253.402663 C123.417241,254.340551 133.516077,245.625617 134.44869,233.936308 L135.526997,220.461318 C133.958845,222.750642 133.123633,215.105087 129.329874,218.275888 C130.473521,220.28559 128.193058,222.535245 128.191435,226.59361 C128.187376,236.768338 125.832334,250.282768 112.518907,250.282768 C112.250257,250.282768 111.98158,250.253953 111.711698,250.231632 C102.839706,249.509649 93.5419913,240.775059 92.6552385,231.756154 Z" id="Fill-15" fill="#E1B9E4" opacity="0.5"></path>
                    <path d="M89.9182364,197.664222 C89.9182364,197.664222 87.2376861,216.145206 96.1673072,223.738813 C105.547001,231.715124 128.337157,232.017066 136.063067,219.661779 C140.084501,213.230488 139.869408,191.804348 139.869408,191.804348 L89.9182364,197.664222 Z" id="Fill-17" fill="#39C3C9"></path>
                    <path d="M206.414707,158.361876 C202.628658,166.13811 192.391026,168.951775 183.548254,164.645849 C174.705482,160.340735 170.606127,150.546682 174.392176,142.770449 C178.178225,134.994621 188.415857,132.180956 197.258629,136.486476 C206.101401,140.791996 210.200756,150.586049 206.414707,158.361876" id="Fill-33" fill="#7F41B8"></path>
                    <path d="M173.808664,85.2086658 C160.821489,101.078497 138.368178,104.183553 123.657821,92.1452237 C108.94787,80.106489 107.551387,57.4827261 120.538562,41.6128946 C133.526142,25.7438747 155.979048,22.6380078 170.689404,34.6767425 C185.399761,46.7150714 186.795839,69.3392402 173.808664,85.2086658" id="Fill-19" fill="#7F41B8"></path>
                    <path d="M208.061429,127.076426 C199.073368,145.536306 175.148899,152.399813 154.624528,142.4069 C134.099751,132.413582 124.747655,109.347863 133.735716,90.8879827 C142.723372,72.4276967 166.648247,65.5641894 187.172617,75.5571021 C207.697394,85.5504207 217.049491,108.61614 208.061429,127.076426" id="Fill-21" fill="#7F41B8"></path>
                    <path d="M165.500135,156.866572 C156.512074,175.326452 132.587605,182.190365 112.062828,172.197452 C91.5384575,162.204134 82.1863606,139.138415 91.1740163,120.678129 C100.162078,102.218249 124.086953,95.3547413 144.611323,105.347654 C165.1361,115.340973 174.488197,138.406692 165.500135,156.866572" id="Fill-23" fill="#7F41B8"></path>
                    <path d="M151.636678,70.5902312 C161.66571,90.7477256 149.474787,117.198933 124.407888,129.670289 C99.3405836,142.142457 70.8898198,135.911649 60.8607875,115.754155 C50.8317553,95.5970663 63.0222729,69.1454532 88.0895776,56.6740968 C113.156882,44.2023345 141.607646,50.4327369 151.636678,70.5902312" id="Fill-25" fill="#7F41B8"></path>
                    <path d="M172.483072,89.5928776 C181.605267,109.750372 170.516661,136.201579 147.716341,148.672936 C124.915652,161.145104 99.0374398,154.914296 89.9152445,134.756801 C80.7930493,114.599713 91.8812858,88.1480996 114.681975,75.6767431 C137.482664,63.2049809 163.360877,69.4353832 172.483072,89.5928776" id="Fill-25" fill="#7F41B8"></path>
                    <path d="M84.4094925,177.034334 C81.0649937,183.903523 71.5221537,186.145364 63.0945524,182.042357 C54.6673569,177.938943 50.5468987,169.04463 53.8909916,162.175441 C57.2354904,155.306658 66.7787363,153.064411 75.2059318,157.167824 C83.6331273,161.270832 87.7539913,170.165551 84.4094925,177.034334" id="Fill-29" fill="#8D5ABD"></path>
                    <path d="M103.071236,206.113454 C100.660567,211.064254 89.431476,210.561828 77.9897269,204.991316 C66.5483835,199.420804 59.2274984,190.890932 61.6381674,185.940132 C64.0484305,180.989333 75.2779272,181.491352 86.7192705,187.06227 C98.1606139,192.632782 105.481499,201.162655 103.071236,206.113454" id="Fill-31" fill="#7F41B8"></path>
                    <path d="M182.080749,188.314519 C176.96315,198.82528 163.356669,202.742008 151.690086,197.061514 C140.023504,191.381426 134.714756,178.255455 139.832355,167.744289 C144.949953,157.233123 158.556434,153.317207 170.223017,158.997701 C181.8896,164.677789 187.198347,177.803759 182.080749,188.314519" id="Fill-35" fill="#7F41B8"></path>
                    <polygon id="Fill-37" fill="#FFD6FD" points="111.264669 125.182387 109.447333 158.186636 132.123043 159.687014 137.764171 125.182387 139.869245 83.2797654 116.74468 89.8827257"></polygon>
                    <path d="M116.078012,94.4707887 L110.824864,126.735198 L108.919056,159.739854 L123.213836,152.099575 L117.741942,117.99632 C117.21192,114.692405 118.656698,111.383214 121.439113,109.526106 L130.979924,103.15772 L116.078012,94.4707887 Z" id="Fill-39" fill="#E1B9E4"></path>
                    <path d="M115.354528,110.10142 L115.354528,110.10142 C100.416091,111.573795 87.1127696,100.657604 85.6403947,85.7195734 L82.6984857,55.8743553 C82.0775558,49.5765841 89.0526682,50.6942579 95.3500336,50.073328 L126.640841,46.9889704 C132.938207,46.3684464 138.546462,50.9702268 139.167392,57.2675921 L139.736374,80.3872873 C141.208749,95.3253181 130.292558,108.629045 115.354528,110.10142" id="Fill-41" fill="#FFD6FD"></path>
                    <path d="M122.20659,106.182176 L122.20659,106.182176 C107.268154,107.654551 93.9648324,96.7383597 92.4924574,81.8003289 L89.5505485,51.9551108 C89.494543,51.3849105 89.5022539,50.8768032 89.5643469,50.4214546 C85.4686447,50.7116277 82.2694354,51.5216774 82.6984046,55.8742742 L85.6403135,85.7194922 C87.1126885,100.657929 100.416416,111.573714 115.354446,110.101339 L115.354446,110.101339 C120.698908,109.574563 125.523492,107.527524 129.454831,104.439108 C127.182146,105.328296 124.754838,105.930963 122.20659,106.182176" id="Fill-43" fill="#E1B9E4"></path>
                    <path d="M156.253069,146.029073 C148.802722,150.926708 151.352593,176.163652 151.352593,176.163652 L130.980005,146.029073 L138.162906,128.807805 L156.833821,129.118676 C156.833821,129.118676 159.067139,144.178864 156.253069,146.029073" id="Fill-45" fill="#E1B9E4"></path>
                    <path d="M26.0978454,176.685964 L26.0256065,176.526876 C23.2375095,170.392657 26.0053146,163.004403 32.2073084,160.023939 L93.0178534,130.805739 C99.2198472,127.825681 106.507454,130.382451 109.295551,136.51667 L109.36779,136.675758 C112.155481,142.809977 109.387675,150.198231 103.185682,153.178289 L42.3755426,182.396895 C36.1735488,185.376953 28.8855365,182.819777 26.0978454,176.685964" id="Fill-47" fill="#FFD6FD"></path>
                    <path d="M109.367668,136.675799 L109.295429,136.516711 C106.507738,130.382492 99.2197254,127.825722 93.0177317,130.805779 L87.2617522,133.571555 C92.2304088,133.654752 96.4267585,135.022421 100.21646,138.77235 L103.584091,140.873366 C105.857993,145.876925 100.356474,152.199858 96.8910355,156.203029 L103.185966,153.178329 C109.38796,150.198272 112.155765,142.810018 109.367668,136.675799" id="Fill-49" fill="#E3C1E5"></path>
                    <path d="M109.412634,136.732454 L109.340396,136.573366 C108.515736,134.759276 107.295791,133.260928 105.828286,132.123368 L105.864406,132.202506 C108.652097,138.33632 105.884698,145.724979 99.6822979,148.705037 L38.8721588,177.923643 C34.5041402,180.022224 29.6000117,179.371262 26.106165,176.662709 L26.1426903,176.742659 C28.9303814,182.876472 36.2183937,185.433648 42.4203875,182.453591 L103.230932,153.234984 C109.432926,150.254927 112.200326,142.866673 109.412634,136.732454" id="Fill-51" fill="#E1B9E4"></path>
                    <path d="M151.854653,54.1812053 C151.854653,60.5499979 146.691195,65.713456 140.322402,65.713456 C133.953204,65.713456 128.790152,60.5499979 128.790152,54.1812053 C128.790152,47.8120069 133.953204,42.6489546 140.322402,42.6489546 C146.691195,42.6489546 151.854653,47.8120069 151.854653,54.1812053" id="Fill-53" fill="#7F41B8"></path>
                    <path d="M150.379356,74.0018148 C149.080679,78.892145 144.575894,81.9399773 140.317451,80.8089109 C136.058603,79.6782503 133.658891,74.7972544 134.957568,69.9065184 C136.256245,65.0161883 140.76103,61.9687618 145.019473,63.0994224 C149.278322,64.230083 151.678033,69.1110789 150.379356,74.0018148" id="Fill-55" fill="#FFD6FD"></path>
                    <path d="M111.991928,119.566056 C109.661615,120.350943 106.24853,126.27778 104.990437,128.807765 C100.804639,137.22522 96.9844996,148.974188 85.9002924,153.44813 C85.6588197,155.111653 90.2577592,157.346595 90.2577592,157.346595 L94.9768263,174.787014 L137.764171,177.203365 C137.764171,177.203365 152.07762,176.499644 150.35809,164.054667 C135.481341,148.038735 143.948308,137.522698 142.165062,127.750155 C141.221087,122.578174 138.060432,119.286028 138.060432,119.286028 C138.060432,119.286028 134.302386,134.074711 120.779101,131.581658 C110.643334,129.713186 111.991928,119.566056 111.991928,119.566056" id="Fill-57" fill="#39C3C9"></path>
                    <path d="M243.273713,170.95194 C243.273713,251.016993 188.86037,315.922429 121.738255,315.922429 C54.6161403,315.922429 0.203202348,251.016993 0.203202348,170.95194 C0.203202348,90.8872928 54.6161403,25.9818573 121.738255,25.9818573 C188.86037,25.9818573 243.273713,90.8872928 243.273713,170.95194 Z" id="Stroke-59" stroke="#FFC9FE" stroke-width="6"></path>
                    <path d="M99.8552654,92.5739494 C101.110924,97.4667146 103.34059,99.9313598 105.616115,99.6793353 C107.891234,99.426905 109.527567,96.5336964 109.681379,91.48509 L99.8552654,92.5739494 Z" id="Fill-61" fill="#BD6AEF"></path>
                    <path d="M110.194966,75.8732488 C110.157629,74.0417086 110.392608,72.1675555 111.114997,70.3575246 C111.483496,69.457785 111.99688,68.5694088 112.742401,67.8064362 C113.487517,67.0487394 114.485469,66.4590589 115.564589,66.1680741 C116.64452,65.8657259 117.769904,65.840564 118.816151,65.9769251 C119.359972,66.0166971 119.847381,66.1571165 120.371316,66.2537056 C120.856697,66.3994009 121.370892,66.5227752 121.841662,66.69972 C123.759646,67.375032 125.510018,68.2999334 127.183688,69.3015379 L123.792924,75.3407913 C122.559181,74.1565603 121.667152,70.9261016 120.287714,70.0503063 C119.943971,69.820197 119.592516,69.6529924 119.239438,69.4447982 C118.886766,69.2991029 118.525572,69.0896913 118.167624,68.9857971 C117.444829,68.7110458 116.713512,68.564133 116.000051,68.5917299 C115.286185,68.613645 114.580435,68.8165633 113.925415,69.2248348 C113.275265,69.6375706 112.69086,70.2410495 112.19858,70.9415233 C111.216862,72.3534286 110.559001,74.0879739 110.194966,75.8732488" id="Fill-63" fill="#35303C"></path>
                    <path d="M124.332078,73.184176 C124.332078,75.7157842 122.279763,77.7685054 119.747749,77.7685054 C117.21614,77.7685054 115.163825,75.7157842 115.163825,73.184176 C115.163825,70.6525677 117.21614,68.5998466 119.747749,68.5998466 C122.279763,68.5998466 124.332078,70.6525677 124.332078,73.184176" id="Fill-65" fill="#35303C"></path>
                    <path d="M95.3118038,79.221806 C95.3349365,78.0777528 97.2383098,77.6743513 96.9619351,76.5254281 C96.8389666,76.0132624 96.6794729,75.5031259 96.478178,74.9990769 C96.1449862,74.1861864 95.6815209,73.3834417 95.0078322,72.6947371 C94.3349553,72.0100909 93.4339982,71.4776334 92.458773,71.2150572 C91.4835478,70.9415233 90.4669273,70.9187965 89.5217341,71.0421708 C89.0306719,71.0778844 88.5903392,71.2049112 88.1171339,71.2921661 C87.6788304,71.4236571 87.2141476,71.5352622 86.7892367,71.6947559 C85.0567206,72.3047282 83.4755815,73.1403456 81.9638405,74.0449552 L85.0262829,79.5006157 C85.5534645,76.8578082 86.9467013,75.5120543 88.1926194,74.7214847 C88.5030844,74.5132906 88.8208544,74.3623194 89.1398419,74.1744171 C89.4580177,74.0425202 89.7843103,73.8534004 90.107762,73.760058 C90.760753,73.5116861 91.421049,73.3793833 92.0655174,73.4037335 C92.7103916,73.4240254 93.3479608,73.6070576 93.9392646,73.9755572 C94.5265101,74.348521 95.0545034,74.8939653 95.4988944,75.5262586 C96.3860531,76.8013969 94.9826704,77.6090116 95.3118038,79.221806" id="Fill-67" fill="#35303C"></path>
                    <path d="M88.8007655,77.509257 C88.8007655,79.7965517 90.6546267,81.6500071 92.9415156,81.6500071 C95.2279985,81.6500071 97.0822656,79.7965517 97.0822656,77.509257 C97.0822656,75.2223682 95.2279985,73.3689128 92.9415156,73.3689128 C90.6546267,73.3689128 88.8007655,75.2223682 88.8007655,77.509257" id="Fill-69" fill="#35303C"></path>
                    <path d="M132.91686,80.2122094 C131.501708,78.1891143 127.50503,78.5421921 123.990485,81.0007498 C120.475941,83.4593075 118.774268,87.0927619 120.189826,89.1154511 C121.604978,91.138952 125.601656,90.7858743 129.115795,88.3273166 C132.630339,85.8687589 134.332418,82.2353045 132.91686,80.2122094" id="Fill-71" fill="#FFF6FF"></path>
                    <path d="M136.506403,157.200656 C128.920912,155.809043 121.539963,157.577273 115.885443,161.520786 C113.079489,158.457938 109.502852,155.919431 105.300009,154.229527 C91.5048137,148.682554 76.2364319,154.343973 71.1979714,166.875393 C66.159511,179.406408 73.2584035,194.061165 87.0535987,199.608544 C89.4760369,200.582552 91.943523,201.208352 94.3927464,201.513541 L94.3931522,201.515976 L127.569071,205.917679 C141.989254,208.563327 155.679743,199.802128 158.147635,186.349053 C160.615527,172.896384 150.92618,159.846305 136.506403,157.200656" id="Fill-73" fill="#39C3C9"></path>
                    <path d="M150.358131,164.054708 C151.712001,167.852932 152.11865,171.988812 151.352836,176.163652 C148.884944,189.616321 135.194455,198.37752 120.774271,195.732278 L87.598353,191.330575 L87.5979472,191.32814 C85.1487238,191.022545 82.6816435,190.396745 80.2592053,189.422737 C76.7332976,188.00515 73.6481283,185.989766 71.0877057,183.569357 C73.636359,190.46736 79.2819509,196.483481 87.0541262,199.608422 C89.4761586,200.58243 91.9432389,201.20823 94.3928681,201.513825 L94.393274,201.51626 L127.569192,205.917557 C141.98897,208.563205 155.679459,199.802006 158.147351,186.349337 C159.688718,177.948521 156.489103,169.705981 150.358131,164.054708" id="Fill-75" fill="#27AEAF"></path>
                    <path d="M126.01983,197.4193 C117.627131,197.13562 89.9182364,197.64048 89.9182364,197.64048 C89.9182364,197.64048 87.2376861,216.121464 96.1673072,223.715071 C98.580817,225.767793 102.300309,227.525471 105.589208,228.258411 C112.492893,212.795634 128.337157,212.795634 126.01983,197.4193" id="Fill-77" fill="#27AEAF"></path>
                    <path d="M105.206058,152.420592 C108.20803,149.475436 126.730815,151.627182 126.730815,156.062975 C126.730409,161.760108 110.64305,171.276569 108.994542,165.866768 C107.468596,160.86118 102.466255,155.107636 105.206058,152.420592" id="Fill-79" fill="#27AEAF" opacity="0.495303199"></path>
                    <path d="M204.828819,191.298838 L204.692458,191.408008 C199.428759,195.614504 191.646843,194.813383 187.31048,189.619081 L144.794234,138.687409 C140.458276,133.493107 141.209886,125.871903 146.47318,121.665407 L146.609541,121.556237 C151.87324,117.349742 159.655156,118.150863 163.991519,123.345165 L206.507765,174.276837 C210.844128,179.470733 210.092519,187.092343 204.828819,191.298838" id="Fill-81" fill="#FFD6FD"></path>
                    <path d="M196.370862,189.618432 L153.854615,138.686759 C149.518252,133.492458 150.269861,125.871254 155.533561,121.664758 L155.669922,121.555588 C156.666251,120.759337 157.753081,120.143277 158.889829,119.701727 C154.873265,118.16036 150.166779,118.712703 146.609622,121.555588 L146.473261,121.664758 C141.209967,125.871254 140.458358,133.492458 144.794315,138.686759 L187.310561,189.618432 C190.825917,193.829391 196.605841,195.152419 201.472632,193.26122 C199.545721,192.52138 197.776679,191.302247 196.370862,189.618432" id="Fill-83" fill="#E1B9E4"></path>
                    <path d="M195.229243,165.491369 L206.51231,175.075604 C210.66483,178.603136 211.015067,184.791331 207.286241,188.745802 L153.764926,245.507316 L141.483095,242.950546 L195.229243,165.491369 Z" id="Fill-85" fill="#FFD6FD"></path>
                    <path d="M208.091745,173.007664 L163.991519,123.345043 C163.991519,123.345043 190.45409,159.386979 200.770048,170.099034 C204.549198,174.023473 205.272805,179.813949 201.543979,183.768826 L151.829004,240.775059 L143.901799,239.672807 L143.062529,240.8822 L155.302153,244.248208 L208.379483,187.622649 C212.108309,183.668178 212.244264,176.53479 208.091745,173.007664" id="Fill-87" fill="#E1B9E4"></path>
                    <path d="M165.703053,245.78994 C171.593771,253.655458 171.571855,263.470615 165.654759,267.713635 C159.737662,271.95625 150.166008,269.018806 144.275291,261.153288 C138.384979,253.28777 138.406083,243.472208 144.323179,239.229593 C150.240276,234.986978 159.812336,237.924017 165.703053,245.78994" id="Fill-89" fill="#FFD6FD"></path>
                    <path d="M165.654272,260.465436 C159.737175,264.708051 150.165115,261.771012 144.274398,253.905494 C142.241563,251.190448 140.913666,248.244075 140.288677,245.373999 C139.110128,250.074397 140.43559,256.027207 144.274398,261.153329 C150.165115,269.018846 159.737175,271.955885 165.654272,267.71327 C169.529199,264.935319 170.875359,259.766179 169.688693,254.320665 C169.058834,256.832793 167.71511,258.987379 165.654272,260.465436" id="Fill-91" fill="#E1B9E4"></path>
                    <path d="M164.786715,133.194858 C163.07165,135.119335 159.711729,134.925345 157.282392,132.760613 C154.852649,130.595881 154.27352,127.280602 155.988179,125.355719 C157.703244,123.430431 161.063165,123.625232 163.492908,125.789965 C165.922246,127.954697 166.50178,131.269975 164.786715,133.194858" id="Fill-93" fill="#FFF6FF"></path>
                    <path d="M156.833902,28.5488951 C156.833902,38.8603895 148.474481,47.2198103 138.162987,47.2198103 C127.851492,47.2198103 119.492072,38.8603895 119.492072,28.5488951 C119.492072,18.2374006 127.851492,9.87797986 138.162987,9.87797986 C148.474481,9.87797986 156.833902,18.2374006 156.833902,28.5488951" id="Fill-95" fill="#7F41B8"></path>
                    <path d="M105.546676,40.5682308 C108.217081,51.173145 99.8791692,62.4148168 86.9228381,65.6773366 C73.9669129,68.9398564 61.2987257,62.9878579 58.6283214,52.3829437 C55.9579171,41.7780294 64.2962343,30.5363577 77.2521596,27.2738379 C90.2084906,24.011318 102.876272,29.9633165 105.546676,40.5682308" id="Fill-97" fill="#7F41B8"></path>
                    <path d="M136.92271,28.2845331 C138.110999,45.111733 124.686738,59.7685191 106.939101,61.0217423 C89.1914643,62.2749655 73.8406977,49.649797 72.6524084,32.823003 C71.4645249,15.9958032 84.8887855,1.3386112 102.636423,0.0857938415 C120.38406,-1.16742935 135.73442,11.4577391 136.92271,28.2845331" id="Fill-99" fill="#7F41B8"></path>
                    <path d="M144.327278,40.7905886 C160.853753,40.7905886 175.239846,48.8841864 182.695659,60.8316079 C182.718196,50.843971 178.665107,41.2045419 170.689607,34.6770672 C155.979251,22.6379266 133.525939,25.7437936 120.538765,41.6128134 C118.172332,44.5039928 116.289656,47.6212232 114.871663,50.8561461 C122.649926,44.6026111 132.984959,40.7905886 144.327278,40.7905886" id="Fill-101" fill="#7F41B8"></path>
                    <path d="M95.0252426,164.177149 C95.0252426,167.383663 91.4822897,169.983452 87.1118362,169.983452 C82.7413827,169.983452 79.1984298,167.383663 79.1984298,164.177149 C79.1984298,160.970634 82.7413827,158.370845 87.1118362,158.370845 C91.4822897,158.370845 95.0252426,160.970634 95.0252426,164.177149" id="Fill-103" fill="#5BD4D6"></path>
                    <path d="M143.866329,170.663431 C143.384195,174.261983 138.774298,176.614212 133.570257,175.916579 C128.366215,175.219758 124.538365,171.737274 125.020498,168.13791 C125.502632,164.539358 130.112529,162.187535 135.316571,162.884762 C140.520613,163.582395 144.348463,167.064878 143.866329,170.663431" id="Fill-105" fill="#5BD4D6"></path>
                    <g id="Group-4" transform="translate(67.533076, 33.266538)" fill="#8D52C1">
                        <path d="M22.8069461,12.4676234 C24.5461305,17.625592 21.1251626,23.4358718 15.1663893,25.4455266 C9.20730403,27.4545576 2.96682963,24.901778 1.22764523,19.7438095 C-0.511851133,14.5855289 2.90911678,8.77524918 8.86820206,6.76621823 C14.8269754,4.75687532 21.0677617,7.30965486 22.8069461,12.4676234" id="Fill-107"></path>
                        <path d="M96.8076596,6.09600267 C104.08025,12.5755886 105.9264,22.373294 100.931364,27.9803315 C95.9363285,33.5865572 85.9908986,32.8787783 78.7183081,26.3987865 C71.4453117,19.9192006 69.5991614,10.1210893 74.5946032,4.51486357 C79.5896391,-1.09176803 89.535069,-0.38398913 96.8076596,6.09600267" id="Fill-109"></path>
                        <path d="M117.261137,51.9017066 C126.884332,60.475409 130.091252,72.5823243 124.424151,78.9425943 C118.757456,85.3032702 106.362397,83.508661 96.7392009,74.9349586 C87.1160052,66.3608503 83.909085,54.2543409 89.5761863,47.8936651 C95.2428817,41.5333951 107.637941,43.3275983 117.261137,51.9017066" id="Fill-111"></path>
                        <path d="M125.887719,83.4238006 C131.448492,88.3782529 133.301541,95.3736571 130.026846,99.0493185 C126.752151,102.724574 119.589948,101.687662 114.029582,96.7332095 C108.46881,91.779163 106.61576,84.783353 109.890455,81.1080974 C113.164744,77.432436 120.326947,78.4697542 125.887719,83.4238006" id="Fill-113"></path>
                        <path d="M15.7817945,68.9543892 C19.9103694,74.8564698 20.5552437,81.5308573 17.2221083,83.862794 C13.8885671,86.1947307 7.83957367,83.3011162 3.71059286,77.3990357 C-0.417982118,71.4973609 -1.06285636,64.8225676 2.27068486,62.4906309 C5.60382025,60.1586942 11.6532195,63.0527145 15.7817945,68.9543892" id="Fill-115"></path>
                    </g>
                    <path d="M121.586991,24.7057475 C125.044134,34.5774607 117.906628,45.8072014 105.64491,49.7874441 C93.3831915,53.7684436 80.640845,48.9932118 77.1837015,39.1214986 C73.726951,29.2497854 80.864457,18.0204231 93.1261753,14.039802 C105.387501,10.0588026 118.13024,14.8344127 121.586991,24.7057475" id="Fill-117" fill="#9C58D9"></path>
                    <path d="M91.2834582,43.8134978 C80.2521823,42.3472642 72.4986088,32.2163072 73.9648424,21.1850313 L69.874371,21.2012777 C68.3675214,32.5362702 76.334554,42.9465742 87.6699978,44.4529725 C90.517623,44.8316028 93.3065808,44.6113745 95.910962,43.890668 C94.4009534,44.0382391 92.8521341,44.0219927 91.2834582,43.8134978" id="Fill-119" fill="#FFFFFF"></path>
                </g>
                <g id="Group-2" opacity="0.600539435" stroke-width="2">
                    <circle id="Oval-5" stroke="#FBAFF7" cx="19.6004195" cy="254.823752" r="2.98496456"></circle>
                    <circle id="Oval-5" stroke="#9E4FF2" cx="227.520425" cy="34.3431727" r="3.99532903"></circle>
                    <circle id="Oval-5" stroke="#9E4FF2" cx="184.686641" cy="359.510876" r="3.99532903"></circle>
                    <circle id="Oval-5" stroke="#9E4FF2" cx="261.605165" cy="190.022845" r="3.17712652"></circle>
                    <path d="M5.93147886,151.145855 L4.4408921e-16,145.214376" id="Line-2" stroke="#9E4FF2" stroke-linecap="round"></path>
                    <path d="M286.780499,254.386834 L292.711978,248.455355" id="Line-2" stroke="#9E4FF2" stroke-linecap="round"></path>
                    <path d="M57.3560998,327.802642 L63.2875787,321.871163" id="Line-2" stroke="#9E4FF2" stroke-linecap="round"></path>
                    <circle id="Oval-5" stroke="#64E1E6" cx="292.906379" cy="128.407176" r="3.99532903"></circle>
                    <circle id="Oval-5" stroke="#64E1E6" cx="14.875174" cy="285.932803" r="3.99532903"></circle>
                    <path d="M160.597079,6.60848301 L166.528558,0.677004145" id="Line-2" stroke="#64E1E6" stroke-linecap="round"></path>
                    <path d="M57.3560998,70.8473148 L63.2875787,64.9158359" id="Line-2" stroke="#64E1E6" stroke-linecap="round"></path>
                    <path d="M75.043517,260.79522 L82.3080653,264.989409" id="Line-2" stroke="#64E1E6" stroke-linecap="round"></path>
                    <circle id="Oval-5" stroke="#FBAFF7" cx="17.5671391" cy="107.223422" r="5.30818995"></circle>
                    <circle id="Oval-5" stroke="#FBAFF7" cx="240.108806" cy="256.349281" r="5.30818995"></circle>
                    <path d="M246.631229,65.1117048 L252.562708,59.1802259" id="Line-2" stroke="#FBAFF7" stroke-linecap="round"></path>
                    <path d="M52.7676118,162.617074 L58.6990907,156.685596" id="Line-2" stroke="#FFD0FD" stroke-linecap="round"></path>
                    <path d="M58.6006961,52.3958885 L69.0231886,41.973396" id="Line-2" stroke="#FFD0FD" stroke-linecap="round"></path>
                </g>
            </g>
        </g>
    </g>
</svg>