
<svg width="316px" height="310px" viewBox="0 0 316 310" version="1.1" xmlns="http://www.w3.org/2000/svg" xmlns:xlink="http://www.w3.org/1999/xlink">
    <g id="Page-1" stroke="none" stroke-width="1" fill="none" fill-rule="evenodd">
        <g id="Start-2" transform="translate(-26.000000, -104.000000)">
            <g id="Illustration-2" transform="translate(13.000000, 79.000000)">
                <g id="Group-6" transform="translate(0.411495, 0.441279)" fill="#F7F9FD">
                    <ellipse id="Oval-2" transform="translate(105.291741, 90.752202) rotate(-29.000000) translate(-105.291741, -90.752202) " cx="105.291741" cy="90.7522024" rx="55.8384497" ry="26.7059426"></ellipse>
                    <ellipse id="Oval-2" transform="translate(81.714219, 49.795794) rotate(-29.000000) translate(-81.714219, -49.795794) " cx="81.7142192" cy="49.7957941" rx="25.587626" ry="10.9661254"></ellipse>
                    <ellipse id="Oval-2" transform="translate(43.556498, 48.608838) rotate(-29.000000) translate(-43.556498, -48.608838) " cx="43.556498" cy="48.6088382" rx="17.2062015" ry="6.65084988"></ellipse>
                    <ellipse id="Oval-2" transform="translate(264.230414, 315.394749) rotate(-29.000000) translate(-264.230414, -315.394749) " cx="264.230414" cy="315.394749" rx="32.1646618" ry="11.2108533"></ellipse>
                    <ellipse id="Oval-2" transform="translate(83.920922, 177.271672) rotate(-29.000000) translate(-83.920922, -177.271672) " cx="83.9209225" cy="177.271672" rx="75.4907743" ry="29.3003455"></ellipse>
                    <ellipse id="Oval-2" transform="translate(90.937313, 128.707708) rotate(-29.000000) translate(-90.937313, -128.707708) " cx="90.9373135" cy="128.707708" rx="60.3586593" ry="23.4270954"></ellipse>
                    <ellipse id="Oval-2" transform="translate(231.312718, 133.203364) rotate(-29.000000) translate(-231.312718, -133.203364) " cx="231.312718" cy="133.203364" rx="75.4907743" ry="37.8675216"></ellipse>
                    <ellipse id="Oval-2" transform="translate(91.589574, 233.329424) rotate(-29.000000) translate(-91.589574, -233.329424) " cx="91.5895735" cy="233.329424" rx="88.7698973" ry="27.6961425"></ellipse>
                    <ellipse id="Oval-2" transform="translate(122.320960, 259.927099) rotate(-29.000000) translate(-122.320960, -259.927099) " cx="122.32096" cy="259.927099" rx="88.7698973" ry="27.6961425"></ellipse>
                    <ellipse id="Oval-2" transform="translate(202.274218, 91.830351) rotate(-29.000000) translate(-202.274218, -91.830351) " cx="202.274218" cy="91.8303514" rx="117.414682" ry="39.2548904"></ellipse>
                    <ellipse id="Oval-2" transform="translate(223.222773, 213.346418) rotate(-29.000000) translate(-223.222773, -213.346418) " cx="223.222773" cy="213.346418" rx="117.414682" ry="44.188103"></ellipse>
                    <ellipse id="Oval-2" transform="translate(200.819206, 265.637646) rotate(-29.000000) translate(-200.819206, -265.637646) " cx="200.819206" cy="265.637646" rx="117.414682" ry="29.3003455"></ellipse>
                    <ellipse id="Oval-2" transform="translate(230.119552, 285.171210) rotate(-29.000000) translate(-230.119552, -285.171210) " cx="230.119552" cy="285.17121" rx="88.5454397" ry="22.0961462"></ellipse>
                </g>
                <g id="Group-4" transform="translate(44.081726, 64.512166)">
                    <g id="Group" transform="translate(63.797566, 55.814736)">
                        <path d="M115.816511,30.3435404 C115.915054,34.0467045 112.992978,37.1306001 109.288776,37.230181 C105.584575,37.3276872 102.502754,34.4056106 102.403173,30.7024465 C102.30463,26.9972077 105.226706,23.9153868 108.92987,23.8158059 C112.634072,23.716225 115.71693,26.6393389 115.816511,30.3435404" id="Fill-1" fill="#932DF4"></path>
                        <path d="M46.4647521,21.1284705 C45.1774617,24.108636 40.2253873,24.8357839 35.4040127,22.7528837 C30.5836755,20.6710208 27.7196878,16.5664212 29.0069782,13.5862558 C30.2942686,10.605053 35.246343,9.87790513 40.0677175,11.9608053 C44.8880547,14.0437055 47.7520425,18.1483051 46.4647521,21.1284705" id="Fill-3" fill="#932DF4"></path>
                        <path d="M68.717553,134.716963 C49.5305986,136.456516 11.4315744,122.91974 1.63426754,83.6952442 C-5.72538223,54.2317499 14.1565638,60.4451822 14.1565638,60.4451822 L117.80678,55.7607314 C117.80678,55.7607314 134.682628,53.33241 128.14867,80.6590645 C123.07938,101.866681 104.948398,131.433905 68.717553,134.716963" id="Fill-5" fill="#23B9BF"></path>
                        <path d="M11.3104176,89.8354431 C11.3104176,89.8354431 7.51078451,73.8537483 15.3600403,66.6393207 C23.2092961,59.4259303 88.42544,72.9876021 88.42544,72.9876021 L114.12042,63.7400647 C114.12042,63.7400647 123.142863,71.2802049 119.151329,86.9527839 C115.159796,102.624326 60.7741103,115.751368 60.7741103,115.751368 L11.3104176,89.8354431 Z" id="Fill-8" fill="#674390"></path>
                        <path d="M11.5667347,60.6016072 C14.8373444,75.2410345 30.8314867,85.0580501 65.0344088,85.6327148 C100.799506,86.2322747 122.266448,70.8719232 121.234333,54.9026761 C120.202219,38.9313544 107.595901,23.4454895 95.9988775,26.3488947 C84.4028909,29.2533372 46.5932737,21.9631865 46.5932737,21.9631865 C46.5932737,21.9631865 4.69046714,29.8280018 11.5667347,60.6016072" id="Fill-10" fill="#FFCAFD"></path>
                        <path d="M121.237549,55.2033896 C122.266551,71.1674502 100.802722,86.5267644 65.0386617,85.9272045 C30.8326277,85.356689 14.8384854,75.5334497 11.5730622,60.8950596 C11.0191436,58.4200597 10.7805644,56.0913192 10.8262056,53.8901667 C17.9016349,63.5692213 33.5264981,69.6892965 60.3313903,70.1446716 C96.0020931,70.7473434 117.447252,55.4606403 116.533389,39.5359971 C119.138052,44.2080003 120.882792,49.671464 121.237549,55.2033896" id="Fill-12" fill="#FCA4F8"></path>
                        <path d="M62.7024527,0.000518650442 C62.7024527,0.000518650442 63.9316542,4.20469913 55.0316126,7.72841024 C44.0517828,12.0767755 25.8544133,22.5172089 31.3853017,35.3392852 C39.1712821,53.3903952 92.41075,57.0562165 101.021385,29.8457397 C105.179924,16.7072867 75.5878042,3.54705037 62.7024527,0.000518650442" id="Fill-14" fill="#FCA4F7"></path>
                        <path d="M119.215538,82.0871167 C112.658759,79.4088058 102.712081,83.3712951 100.842865,91.0742915 C93.4043805,84.5289229 82.6486076,89.7444718 79.2887901,99.9515125 C74.4155505,92.2993439 61.1038683,89.2828729 53.1062784,100.650653 C45.4945646,87.6252661 37.2822535,90.9570765 29.3365287,94.5419884 C26.8158875,87.6045201 20.8700789,82.2147047 9.26683118,84.8598219 C5.33234892,85.7560499 2.8417895,84.356731 1.26405486,82.1182357 C1.38645636,82.6410353 1.49848486,83.1493128 1.63437127,83.6959703 C11.4441257,122.916317 49.5307023,136.456205 68.7176567,134.716652 C104.948502,131.433594 123.182177,101.891265 128.148774,80.6587533 C128.261839,80.1764084 128.356234,79.7189587 128.454777,79.2542479 C125.850115,81.3081037 122.540088,83.4449435 119.215538,82.0871167" id="Fill-16" fill="#47DDE4"></path>
                        <path d="M128.422102,79.244601 C128.320447,79.713461 128.228127,80.1626123 128.117136,80.6522183 C123.144315,101.881618 104.912715,131.423947 68.6829072,134.707005 C58.3617634,135.636426 42.5688574,132.157319 28.6586526,122.629711 C47.8497562,126.713564 69.699462,126.15031 80.7000379,119.619463 C96.8373278,110.038952 97.5312821,99.8090911 100.782183,91.0449359 C100.78737,91.0304137 100.793593,91.0553089 100.803966,91.0656819 C102.673183,83.357499 110.761018,79.437539 118.621684,81.7133771 C123.131868,83.0203763 125.810179,81.2963822 128.422102,79.244601" id="Fill-18" fill="#20CBD4"></path>
                        <path d="M88.3645504,71.4020877 C87.1747663,75.6104174 81.9260238,77.8094953 76.6440877,76.3147447 C71.3611143,74.8210314 68.0438261,70.1977814 69.2336102,65.9894517 C70.4244316,61.7821593 75.6721368,59.5820441 80.9551102,61.0767947 C86.2380836,62.570508 89.5553718,67.193758 88.3645504,71.4020877" id="Fill-20" fill="#932DF4"></path>
                        <path d="M34.6350616,56.8636934 C36.5281357,59.9496636 34.9223939,64.3789383 31.0480751,66.756432 C27.172719,69.1339256 22.4965667,68.5582236 20.6034925,65.4722535 C18.7093811,62.3862833 20.3151229,57.9570086 24.190479,55.5795149 C28.0647978,53.2020213 32.7409502,53.776686 34.6350616,56.8636934" id="Fill-22" fill="#932DF4"></path>
                        <path d="M85.0307691,25.399142 C86.0006454,28.5805438 83.3565655,32.2059104 79.1254152,33.4963127 C74.8942649,34.7856777 70.6776368,33.2515097 69.7077604,30.0701079 C68.7368468,26.8887061 71.3809268,23.2633395 75.6120771,21.9729372 C79.8442647,20.6835722 84.0608928,22.2177402 85.0307691,25.399142" id="Fill-24" fill="#932DF4"></path>
                        <path d="M53.8144438,29.1847716 C53.91195,32.8298469 51.036552,35.8618774 47.392514,35.9604209 C43.7474387,36.0579272 40.7143709,33.1825292 40.6168646,29.5374539 C40.5193583,25.8934159 43.3947564,22.8593108 47.0387944,22.7628418 C50.6838697,22.6653355 53.7169375,25.5396963 53.8144438,29.1847716" id="Fill-26" fill="#FFFFFF"></path>
                        <path d="M17.6963531,37.70402 L11.5472334,40.5088816 C9.79419495,41.3086406 9.02036849,43.3790931 9.82116477,45.1331689 C10.6209238,46.8872447 12.6913763,47.6600339 14.4444148,46.8592376 L20.5935345,44.054376 C22.3476102,43.2556543 23.1203994,41.1841645 22.3206404,39.431126 C21.5208814,37.6770502 19.4504289,36.904261 17.6963531,37.70402" id="Fill-28" fill="#20CBD5"></path>
                        <path d="M111.601957,54.4415959 L105.906138,50.8037817 C104.280688,49.7664808 102.123102,50.2426019 101.085801,51.8680524 C100.0485,53.4924656 100.524621,55.6510887 102.149034,56.6883896 L107.844854,60.3251665 C109.469267,61.3624674 111.62789,60.8863463 112.665191,59.2608958 C113.702492,57.6375199 113.226371,55.4788968 111.601957,54.4415959" id="Fill-30" fill="#FFFFFF"></path>
                        <path d="M83.183025,5.62663119 L78.8294732,8.28523335 C77.5867868,9.0445376 77.1957243,10.6648016 77.9539913,11.907488 C78.7122582,13.1491372 80.3335595,13.5412369 81.5752087,12.7819327 L85.9287605,10.1243678 C87.1704096,9.36506357 87.5625094,7.74376229 86.8042424,6.50211313 C86.0459755,5.26046397 84.4246742,4.86940154 83.183025,5.62663119" id="Fill-32" fill="#20CBD5"></path>
                        <path d="M53.0466336,50.1049521 L57.6221678,53.7157964 C58.9270924,54.7458362 60.8201665,54.5228165 61.8502062,53.217892 C62.8792087,51.9119302 62.6572263,50.0198934 61.3512645,48.9898536 L56.7767676,45.3790092 C55.4708058,44.3489695 53.578769,44.5730264 52.5487292,45.877951 C51.5186894,47.1828755 51.7417091,49.0759496 53.0466336,50.1049521" id="Fill-34" fill="#20CBD5"></path>
                        <path d="M41.9346493,80.6707992 L46.2887293,78.0129813 C47.5296421,77.2542596 47.9226551,75.6325208 47.1641285,74.3901428 C46.405602,73.1489108 44.7854259,72.7557968 43.5433673,73.5145184 L39.1892873,76.1723363 C37.9483745,76.9299119 37.5553615,78.5516507 38.3127423,79.7940287 C39.0712688,81.0352607 40.6925907,81.4283747 41.9346493,80.6707992" id="Fill-36" fill="#FFFFFF"></path>
                    </g>
                    <g id="Group" transform="translate(217.951357, 31.926551) rotate(62.000000) translate(-217.951357, -31.926551) translate(192.451357, 13.926551)">
                        <path d="M11.0203287,22.9507016 C11.0203287,22.9507016 11.7554645,10.6356631 21.4114731,7.10264459 C31.1961305,3.5210066 38.1615421,9.47642118 38.4537585,14.0333096 C39.204516,25.783027 20.2095261,35.8253412 11.0203287,22.9507016" id="Fill-1" fill="#FBA3F8"></path>
                        <path d="M11.709978,19.0639046 C11.709978,19.0639046 11.4048966,22.9458396 13.7867366,25.9421367 C13.1903577,28.8583546 9.19581359,30.6038907 8.8659214,35.5964482 C-0.575059971,30.1024424 4.73813395,20.6292625 0.000183783947,14.830193 C7.38370387,14.4965296 11.709978,19.0639046 11.709978,19.0639046" id="Fill-3" fill="#F389EE"></path>
                        <path d="M38.3093044,16.5930796 C38.3093044,16.5930796 38.301953,13.0877075 36.2426539,9.58138214 C37.3563846,5.92729152 40.8427661,4.89007509 41.1855231,0.000476661964 C50.6265045,5.49352914 45.3133106,14.9676623 50.0512608,20.7667318 C42.6677407,21.0994418 38.3093044,16.5930796 38.3093044,16.5930796" id="Fill-6" fill="#F389EE"></path>
                        <path d="M23.0752555,17.821051 C25.2228168,16.1362267 25.9809028,13.4216065 24.7673369,11.7563352 C23.5548182,10.0921503 20.8292687,10.1073582 18.6817074,11.7921825 C16.5341461,13.4770069 15.7760601,16.1927134 16.9896259,17.8568983 C18.2021447,19.5221695 20.9266471,19.5058753 23.0752555,17.821051" id="Fill-8" fill="#FFC9FE"></path>
                    </g>
                    <g id="Group" transform="translate(0.967607, 180.896103)">
                        <g id="Group-3" transform="translate(0.000000, 1.558898)" fill="#FFC8FE">
                            <path d="M41.3161521,8.044142 C53.2146216,16.8188408 52.9858805,32.8668789 44.305508,41.0449642 C35.7509038,49.3881204 20.9401115,47.7617787 10.2694553,37.4173341 C-0.764356989,27.2804072 -4.05791497,11.1010983 6.12381691,4.29152964 C15.629544,-1.64787947 29.7297453,0.106588655 41.3161521,8.044142" id="Fill-1"></path>
                        </g>
                        <path d="M44.3022065,42.5803596 C35.7421,50.9203716 20.9328798,49.3011044 10.2661539,38.9566598 C4.52797408,33.6822507 0.880692689,26.7728534 0.133943265,20.3979714 C1.86325772,24.697676 4.74806865,28.9109149 8.55256045,32.4009859 C19.2192864,42.7454305 34.0285066,44.3725582 42.5886131,36.0325462 C47.1555754,31.7249811 49.3801026,25.2400519 48.73554,18.7865648 C52.3513793,27.0794137 50.4412729,36.8028772 44.3022065,42.5803596" id="Fill-4" fill="#FDB3FB"></path>
                        <path d="M30.1014693,20.742105 C28.9609078,22.7174538 25.9849148,23.1340613 23.4538273,21.6735767 C20.9227398,20.2115199 19.7955412,17.4257515 20.9361027,15.4511888 C22.0766641,13.475054 25.0534432,13.0584465 27.5837446,14.5197172 C30.1148322,15.9802019 31.2420308,18.7667563 30.1014693,20.742105" id="Fill-6" fill="#915BC8"></path>
                        <path d="M29.9701986,37.5884576 C29.2155886,39.5072106 26.6106122,40.2791137 24.1526275,39.3122697 C21.6938568,38.3454257 20.3127634,36.0053488 21.0673733,34.0873819 C21.8219833,32.1678428 24.4269597,31.3967258 26.8857304,32.3643558 C29.3437151,33.3304138 30.7248085,35.6704907 29.9701986,37.5884576" id="Fill-8" fill="#915BC8"></path>
                        <path d="M11.56707,25.0093456 C10.1113016,26.6301849 7.24771409,26.4320998 5.17175069,24.5667984 C3.09578729,22.7007108 2.592714,19.8756399 4.04848235,18.2548006 C5.5042507,16.6347474 8.36705217,16.8336185 10.4438016,18.69892 C12.519765,20.5634354 13.0228383,23.3885064 11.56707,25.0093456" id="Fill-10" fill="#915BC8"></path>
                        <path d="M46.348693,33.5100267 C44.9322272,35.086847 42.1456728,34.8942643 40.1247331,33.0784841 C38.1037933,31.26349 37.6148689,28.51388 39.0313347,26.9362736 C40.4478004,25.3594532 43.2351409,25.552036 45.2552946,27.3678161 C47.2762344,29.1828103 47.7659448,31.9324203 46.348693,33.5100267" id="Fill-12" fill="#915BC8"></path>
                        <path d="M20.9528456,4.8651904 C20.8184307,6.93879564 18.5561729,8.47945761 15.8993171,8.30731222 C13.2424613,8.13516683 11.198726,6.31467034 11.3331409,4.2410651 C11.4675558,2.16745985 13.7298135,0.626797885 16.3858833,0.798943278 C19.0427391,0.971874724 21.0872605,2.79158516 20.9528456,4.8651904" id="Fill-14" fill="#915BC8"></path>
                        <path d="M45.8236102,15.6572917 C44.701914,17.3182196 42.0678537,17.5013697 39.9392248,16.0644666 C37.8105959,14.6275635 36.9938878,12.1161273 38.114798,10.4551994 C39.2364943,8.7934854 41.8713407,8.61112133 43.9999695,10.0480244 C46.1285984,11.4841415 46.9445204,13.9963638 45.8236102,15.6572917" id="Fill-17" fill="#915BC8"></path>
                    </g>
                    <g id="Group" transform="translate(9.631011, 31.662128)">
                        <g id="Group-3" transform="translate(20.412551, 17.919704) rotate(2.000000) translate(-20.412551, -17.919704) translate(1.412551, 0.919704)">
                            <path d="M12.0910481,24.706816 C12.0910481,24.706816 12.12453,30.2771879 6.40276152,30.3732665 C4.60420029,27.7012639 5.53368742,25.4193985 5.53368742,25.4193985 C5.53368742,25.4193985 3.73221472,27.0287141 0.0834136451,24.4819048 C0.955399219,20.6758843 3.0734944,19.9494723 3.0734944,19.9494723 C3.0734944,19.9494723 1.39575921,19.7405743 0.000436720655,16.1514583 C2.57490498,12.9728598 6.72811841,13.2880266 7.96039852,16.8371098 C9.19267864,20.3869208 12.0910481,24.706816 12.0910481,24.706816" id="Fill-1" fill="#20CCD3"></path>
                            <path d="M27.0188151,31.2376822 C36.6427548,25.190826 38.9118512,14.9865022 36.2998099,9.29392215 C33.6727152,3.56853549 25.2834617,-0.222536762 16.6421454,1.1851973 C8.00082909,2.59293136 2.38849805,6.47489322 7.29942181,19.6842373 C8.86288176,23.8898572 15.6868046,38.3577433 27.0188151,31.2376822 Z" id="Fill-3" fill="#FCA3F7"></path>
                        </g>
                        <path d="M17.5652912,11.0621342 L20.2605855,10.6348758 C21.0292138,10.5133219 21.5532786,9.79127708 21.4317247,9.02192086 C21.3101708,8.25402038 20.588126,7.72922772 19.8194976,7.85150951 L17.1242033,8.27804001 C16.3555749,8.4003218 15.8307823,9.12163875 15.9530641,9.89099497 C16.074618,10.6588955 16.7966628,11.1836881 17.5652912,11.0621342" id="Fill-6" fill="#F276ED"></path>
                        <path d="M19.4240471,19.6977756 L22.0065219,18.8170556 C22.7438519,18.5659413 23.1369005,17.7652867 22.8857861,17.0286846 C22.6346717,16.2920824 21.8340172,15.8983059 21.097415,16.1494203 L18.5142124,17.0301403 C17.7776102,17.2819825 17.3845616,18.0819092 17.6349481,18.8192393 C17.8867903,19.5558414 18.6874449,19.9496179 19.4240471,19.6977756" id="Fill-8" fill="#F276ED"></path>
                        <path d="M27.2937533,12.8235014 L29.9046149,12.0323091 C30.6499515,11.8066701 31.0706591,11.0191172 30.84502,10.2745085 C30.619381,9.53062764 29.832556,9.10919221 29.0872194,9.33483121 L26.4756299,10.1267513 C25.731749,10.3516625 25.3103136,11.1392154 25.5359526,11.8838241 C25.7623195,12.6284328 26.5491445,13.0498683 27.2937533,12.8235014" id="Fill-10" fill="#F276ED"></path>
                        <path d="M29.6564848,20.4781954 L32.060632,19.1876859 C32.7470113,18.8193848 33.0039486,17.9648681 32.6363754,17.2792166 C32.2680743,16.5935652 31.4135576,16.3366279 30.7279061,16.7034733 L28.3237589,17.9947107 C27.6381075,18.3630117 27.3804423,19.2168006 27.7480155,19.902452 C28.1163166,20.5881035 28.9708334,20.8457687 29.6564848,20.4781954" id="Fill-12" fill="#F276ED"></path>
                        <path d="M23.4756501,27.1988896 L25.96423,26.0808847 C26.6746289,25.7613508 26.9912514,24.9272143 26.6724453,24.2175433 C26.3536393,23.5078722 25.5195028,23.1905219 24.8098317,23.5100558 L22.320524,24.6280607 C21.6101251,24.9468668 21.2935026,25.7810032 21.6123087,26.4906743 C21.9311148,27.2010732 22.7652512,27.5176957 23.4756501,27.1988896" id="Fill-14" fill="#F276ED"></path>
                    </g>
                    <g id="Group" transform="translate(229.073971, 198.796204) rotate(22.000000) translate(-229.073971, -198.796204) translate(212.073971, 179.296204)">
                        <g id="Group-3" transform="translate(16.146339, 0.163784)" fill="#8D8888">
                            <path d="M2.14473846,18.6224816 C1.34448551,18.6224816 0.67643071,17.9968109 0.634046569,17.1894939 C0.627991692,17.065369 0.120391144,4.75782167 11.2896215,0.928111777 C12.0828104,0.655642298 12.9415938,1.07746542 13.212045,1.86863605 C13.4835054,2.65980669 13.0616822,3.52060841 12.2715208,3.79206874 C3.28608283,6.871983 3.63827486,16.6223538 3.65845778,17.0361037 C3.69781449,17.8696585 3.0539792,18.5790883 2.22143357,18.6204633 C2.19519577,18.6214724 2.16996711,18.6224816 2.14473846,18.6224816" id="Fill-1"></path>
                        </g>
                        <path d="M18.7434782,14.1022129 C11.2788236,6.29848521 1.94825769,12.5743655 0.421419461,19.3608739 C-3.70699772,37.7101795 23.6610477,47.0134985 32.3154857,28.1828301 C35.0906378,22.1471266 32.4860314,10.4884603 18.7434782,14.1022129" id="Fill-4" fill="#FCA2F8"></path>
                        <path d="M12.0984681,22.0094658 C10.7601062,24.6607316 8.08459481,26.0051549 6.12311883,25.0147186 C4.16164285,24.02307 3.6561203,21.0723701 4.99448215,18.4211043 C6.33405629,15.7710509 9.00956772,14.4254153 10.9710437,15.4170639 C12.9325197,16.4075001 13.4368299,19.3582001 12.0984681,22.0094658" id="Fill-6" fill="#FFC9FE"></path>
                    </g>
                </g>
                <g id="Group-8" opacity="0.599999964" transform="translate(50.264665, 49.990115)" stroke-width="2">
                    <circle id="Oval-5" stroke="#44D1D7" cx="61.8115032" cy="19.0517568" r="4.19687606"></circle>
                    <circle id="Oval-5" stroke="#FBAFF7" cx="212.009142" cy="147.47375" r="4.19687606"></circle>
                    <circle id="Oval-5" stroke="#44D1D7" cx="166.809937" cy="225.107691" r="4.19687606"></circle>
                    <circle id="Oval-5" stroke="#9E4FF2" cx="29.2604246" cy="165.601692" r="5.63265829"></circle>
                    <circle id="Oval-5" stroke="#9E4FF2" cx="165.79142" cy="4.59864535" r="3.69976172"></circle>
                    <circle id="Oval-5" stroke="#FBAFF7" cx="119.614213" cy="39.8158934" r="5.49417974"></circle>
                    <circle id="Oval-5" stroke="#FBAFF7" cx="81.0287179" cy="209.939857" r="3.03395884"></circle>
                    <path d="M153.228499,32.7927367 L146.501369,28.9088264" id="Line-2" stroke="#44D1D7" stroke-linecap="round"></path>
                    <path d="M161.794495,277.382044 L167.287174,271.889365" id="Line-2" stroke="#FBAFF7" stroke-linecap="round"></path>
                    <path d="M114.251255,248.30276 L108.758577,242.810081" id="Line-2" stroke="#9E4FF2" stroke-linecap="round"></path>
                    <path d="M68.6100165,268.011477 L63.1173378,262.518798" id="Line-2" stroke="#44D1D7" stroke-linecap="round"></path>
                    <path d="M255.324176,114.490946 L249.831497,108.998267" id="Line-2" stroke="#44D1D7" stroke-linecap="round"></path>
                    <path d="M198.100026,104.152796 L206.031923,96.2208994" id="Line-2" stroke="#9E4FF2" stroke-linecap="round"></path>
                    <path d="M1.01285832,135.271823 L8.94475528,127.339926" id="Line-2" stroke="#FBAFF7" stroke-linecap="round"></path>
                </g>
            </g>
        </g>
    </g>
</svg>